<svg width="75" height="75" viewBox="0 0 75 75" fill="none" xmlns="http://www.w3.org/2000/svg">
<path fill-rule="evenodd" clip-rule="evenodd" d="M64.9407 10.0594C65.1589 10.2771 65.3321 10.5357 65.4502 10.8205C65.5684 11.1052 65.6292 11.4105 65.6292 11.7187C65.6292 12.027 65.5684 12.3323 65.4502 12.617C65.3321 12.9018 65.1589 13.1604 64.9407 13.3781L13.3782 64.9406C12.9381 65.3807 12.3412 65.628 11.7188 65.628C11.0964 65.628 10.4995 65.3807 10.0594 64.9406C9.61931 64.5005 9.37207 63.9036 9.37207 63.2812C9.37207 62.6589 9.61931 62.062 10.0594 61.6219L61.6219 10.0594C61.8396 9.8411 62.0983 9.66793 62.383 9.54978C62.6677 9.43162 62.973 9.3708 63.2813 9.3708C63.5896 9.3708 63.8948 9.43162 64.1796 9.54978C64.4643 9.66793 64.7229 9.8411 64.9407 10.0594V10.0594Z" fill="#fff"/>
<path fill-rule="evenodd" clip-rule="evenodd" d="M10.0592 10.0594C9.8409 10.2771 9.66774 10.5357 9.54958 10.8205C9.43143 11.1052 9.37061 11.4105 9.37061 11.7187C9.37061 12.027 9.43143 12.3323 9.54958 12.617C9.66774 12.9018 9.8409 13.1604 10.0592 13.3781L61.6217 64.9406C62.0618 65.3807 62.6587 65.628 63.281 65.628C63.9034 65.628 64.5003 65.3807 64.9404 64.9406C65.3805 64.5005 65.6278 63.9036 65.6278 63.2812C65.6278 62.6589 65.3805 62.062 64.9404 61.6219L13.3779 10.0594C13.1602 9.8411 12.9016 9.66793 12.6168 9.54978C12.3321 9.43162 12.0268 9.3708 11.7185 9.3708C11.4103 9.3708 11.105 9.43162 10.8203 9.54978C10.5355 9.66793 10.2769 9.8411 10.0592 10.0594V10.0594Z" fill="#fff"/>
</svg>
