<svg width="49" height="49" viewBox="0 0 49 49" fill="fff" xmlns="http://www.w3.org/2000/svg">
<path d="M18.8474 41.6589V35.5434C18.8474 33.9823 20.1222 32.7168 21.6948 32.7168H27.4431C28.1983 32.7168 28.9225 33.0146 29.4565 33.5447C29.9904 34.0748 30.2904 34.7937 30.2904 35.5434V41.6589C30.2856 42.3079 30.542 42.9319 31.0026 43.3925C31.4632 43.8531 32.09 44.1122 32.7438 44.1122H36.6655C38.4972 44.1169 40.2554 43.3979 41.5522 42.1138C42.8491 40.8297 43.5779 39.0861 43.5779 37.2678V19.8459C43.5779 18.3771 42.922 16.9839 41.7871 16.0415L28.4459 5.46392C26.1252 3.60931 22.8001 3.66919 20.5487 5.60614L7.51191 16.0415C6.32336 16.9561 5.61299 18.3535 5.57788 19.8459V37.2501C5.57788 41.0399 8.67264 44.1122 12.4902 44.1122H16.3225C17.6803 44.1122 18.7839 43.0246 18.7937 41.6766L18.8474 41.6589Z" fill="black"/>
</svg>
