<svg width="181" height="181" viewBox="0 0 181 181" fill="none" xmlns="http://www.w3.org/2000/svg">
<path d="M135.75 60.3335H128.208V52.7918C128.208 42.791 124.235 33.1997 117.164 26.128C110.092 19.0563 100.501 15.0835 90.4998 15.0835C80.499 15.0835 70.9077 19.0563 63.836 26.128C56.7643 33.1997 52.7915 42.791 52.7915 52.7918V60.3335H45.2498C41.2495 60.3335 37.413 61.9226 34.5843 64.7513C31.7556 67.58 30.1665 71.4165 30.1665 75.4168V150.833C30.1665 154.834 31.7556 158.67 34.5843 161.499C37.413 164.328 41.2495 165.917 45.2498 165.917H135.75C139.75 165.917 143.587 164.328 146.415 161.499C149.244 158.67 150.833 154.834 150.833 150.833V75.4168C150.833 71.4165 149.244 67.58 146.415 64.7513C143.587 61.9226 139.75 60.3335 135.75 60.3335ZM67.8748 52.7918C67.8748 46.7913 70.2585 41.0366 74.5015 36.7935C78.7445 32.5505 84.4993 30.1668 90.4998 30.1668C96.5004 30.1668 102.255 32.5505 106.498 36.7935C110.741 41.0366 113.125 46.7913 113.125 52.7918V60.3335H67.8748V52.7918Z" fill="#091353"/>
</svg>
