<svg width="37" height="68" viewBox="0 0 37 68" fill="none" xmlns="http://www.w3.org/2000/svg">
<path fill-rule="evenodd" clip-rule="evenodd" d="M5 0C2.23858 0 0 2.23858 0 5V18.5V63C0 65.7614 2.23858 68 5 68C7.76142 68 10 65.7614 10 63V34.936C12.5451 36.2549 15.4355 37 18.5 37C28.7173 37 37 28.7173 37 18.5C37 8.28273 28.7173 0 18.5 0C15.1508 0 12.0095 0.88999 9.29962 2.44637C8.42772 0.981492 6.82848 0 5 0Z" fill="#7DD0FF"/>
<rect x="11" y="42" width="10" height="29.8136" rx="5" transform="rotate(-30 11 42)" fill="#7D9AFF"/>
</svg>
