<svg width="60" height="60" viewBox="0 0 60 60" fill="none" xmlns="http://www.w3.org/2000/svg">
<path d="M11.25 56.25H33.75C34.7443 56.249 35.6975 55.8536 36.4006 55.1506C37.1036 54.4475 37.499 53.4943 37.5 52.5V46.875H33.75V52.5H11.25V7.5H33.75V13.125H37.5V7.5C37.499 6.50574 37.1036 5.55249 36.4006 4.84945C35.6975 4.1464 34.7443 3.75099 33.75 3.75H11.25C10.2557 3.75099 9.30249 4.1464 8.59945 4.84945C7.8964 5.55249 7.50099 6.50574 7.5 7.5V52.5C7.50099 53.4943 7.8964 54.4475 8.59945 55.1506C9.30249 55.8536 10.2557 56.249 11.25 56.25Z" fill="black"/>
<path d="M38.5988 38.5988L45.3225 31.875H18.75V28.125H45.3225L38.5988 21.4012L41.25 18.75L52.5 30L41.25 41.25L38.5988 38.5988Z" fill="black"/>
</svg>
