<svg width="30" height="30" viewBox="0 0 30 30" fill="none" xmlns="http://www.w3.org/2000/svg">
<path d="M26.25 21.25H25V12.5C25 9.84784 23.9464 7.3043 22.0711 5.42893C20.1957 3.55357 17.6522 2.5 15 2.5C12.3478 2.5 9.8043 3.55357 7.92893 5.42893C6.05357 7.3043 5 9.84784 5 12.5V21.25H3.75C3.41848 21.25 3.10054 21.3817 2.86612 21.6161C2.6317 21.8505 2.5 22.1685 2.5 22.5C2.5 22.8315 2.6317 23.1495 2.86612 23.3839C3.10054 23.6183 3.41848 23.75 3.75 23.75H10.1625C10.4422 24.82 11.0687 25.7671 11.944 26.443C12.8193 27.119 13.8941 27.4856 15 27.4856C16.1059 27.4856 17.1807 27.119 18.056 26.443C18.9313 25.7671 19.5578 24.82 19.8375 23.75H26.25C26.5815 23.75 26.8995 23.6183 27.1339 23.3839C27.3683 23.1495 27.5 22.8315 27.5 22.5C27.5 22.1685 27.3683 21.8505 27.1339 21.6161C26.8995 21.3817 26.5815 21.25 26.25 21.25ZM15 25C14.5616 24.9995 14.131 24.8838 13.7515 24.6644C13.3719 24.445 13.0567 24.1297 12.8375 23.75H17.1625C16.9433 24.1297 16.6281 24.445 16.2485 24.6644C15.869 24.8838 15.4384 24.9995 15 25Z" fill="black"/>
<circle cx="25" cy="5" r="5" fill="#3AD052"/>
</svg>
